<svg width="151" height="62" viewBox="0 0 151 62" fill="none" xmlns="http://www.w3.org/2000/svg">
<g clip-path="url(#clip0_964_17566)">
<g clip-path="url(#clip1_964_17566)">
<path d="M52.8868 22.4887C52.7701 26.1268 54.6039 27.7378 54.6492 28.761C54.6277 28.9692 54.5561 29.1693 54.4405 29.3445C54.325 29.5197 54.1688 29.665 53.9851 29.7681L51.9116 31.2072C51.6432 31.3938 51.3269 31.5007 50.9995 31.5156C50.9299 31.5124 49.6728 31.8096 47.6819 27.4021C46.4672 28.9055 44.9218 30.1133 43.1638 30.9332C41.4058 31.7531 39.482 32.1633 37.5395 32.1324C34.9022 32.2754 27.755 30.6483 28.1228 23.1039C27.8652 16.9553 33.6403 13.1357 39.613 13.4585C40.7631 13.4618 43.1121 13.518 47.2251 14.4656V11.9567C47.6608 7.70668 44.8438 4.40911 39.9661 4.90383C39.5773 4.90543 36.8235 4.82352 32.5403 6.52771C31.3481 7.07061 31.1958 6.98067 30.7989 6.98067C29.5985 6.98067 30.0926 3.53051 30.3226 3.09362C31.1666 2.06564 36.1317 0.146211 41.0045 0.173517C44.2626 -0.112186 47.5032 0.884829 50.0259 2.94906C51.0514 4.0864 51.8338 5.41801 52.3257 6.8635C52.8177 8.30898 53.0091 9.83834 52.8884 11.3592L52.8868 22.4887ZM38.8873 27.6912C44.1407 27.6157 46.3649 24.4836 46.8719 22.7971C47.2704 21.1828 47.204 20.1613 47.204 18.3961C45.6375 18.0234 43.3826 17.617 40.7955 17.6138C38.3413 17.4307 33.859 18.5181 34.0339 22.7955C33.833 25.4923 35.8353 27.839 38.8873 27.6912ZM66.5752 31.3936C65.302 31.5092 64.7091 30.6129 64.5211 29.7279L56.4539 3.28155C56.2967 2.83502 56.193 2.37403 56.1428 1.90341C56.1131 1.70939 56.1622 1.51158 56.2795 1.35346C56.3967 1.19535 56.5725 1.08985 56.7681 1.06015C56.807 1.05372 56.4231 1.06015 60.3725 1.06015C61.7948 0.918801 62.2581 2.0287 62.4055 2.7258L68.1919 25.3462L73.5636 2.7258C73.6495 2.20859 74.0399 0.947714 75.6372 1.08103H78.417C78.7685 1.05212 80.2167 1.00072 80.4711 2.74668L85.8849 25.6562L91.8576 2.74668C91.9353 2.39652 92.2982 0.920408 93.9117 1.08103H97.1062C97.2439 1.06015 98.1024 0.950925 97.9567 2.45916C97.887 2.75631 98.5091 0.746937 89.4115 29.7488C89.2252 30.6338 88.6307 31.5301 87.3574 31.4144H84.3297C82.5575 31.5992 82.3032 29.8628 82.2757 29.6878L76.9039 7.6617L71.5938 29.6653C71.5679 29.8404 71.3135 31.5767 69.5397 31.392H66.5752V31.3936ZM110.877 32.2979C109.925 32.2995 105.382 32.2497 101.585 30.3238C101.207 30.165 100.885 29.8984 100.66 29.5579C100.434 29.2173 100.316 28.8181 100.32 28.4108V26.6841C100.32 25.3269 101.325 25.5758 101.751 25.7381C103.377 26.3902 104.42 26.8849 106.418 27.28C112.355 28.4895 114.966 26.9106 115.606 26.5605C117.736 25.306 117.905 22.4357 116.456 20.9467C114.759 19.5349 113.949 19.4819 107.85 17.5737C107.098 17.3665 100.77 15.3876 100.756 9.16352C100.657 4.62756 104.814 0.139785 112.018 0.176728C114.07 0.175122 119.539 0.840097 121.02 2.68564C121.238 3.02134 121.347 3.41647 121.331 3.81642V5.4403C121.331 6.15346 121.068 6.51004 120.542 6.51004C119.293 6.37191 117.077 4.7159 112.578 4.78336C111.462 4.72554 106.116 4.92953 106.356 8.79409C106.286 11.8395 110.667 12.9815 111.167 13.1132C117.074 14.8752 119.048 15.1676 121.392 17.8644C124.169 21.4382 122.672 25.6224 122.097 26.7693C119.006 32.791 111.013 32.3011 110.877 32.2979ZM117.389 49.1407C106.045 57.448 89.5767 61.8699 75.5157 61.8699C56.543 61.994 38.2098 55.0768 24.1199 42.4781C23.0621 41.532 23.9952 40.2358 25.2814 40.957C40.9113 49.822 58.6076 54.4799 76.614 54.4685C90.0607 54.397 103.361 51.6923 115.75 46.5097C117.658 45.7066 119.277 47.7625 117.389 49.1407ZM122.118 43.7936C120.667 41.9432 112.515 42.9294 108.865 43.3615C107.765 43.4852 107.579 42.5391 108.575 41.8404C115.066 37.3157 125.727 38.6119 126.952 40.133C128.175 41.6541 126.62 52.2455 120.543 57.3051C119.61 58.0873 118.718 57.6745 119.132 56.6465C120.5 53.2333 123.569 45.6455 122.118 43.7936Z" fill="#737373"/>
</g>
</g>
<defs>
<clipPath id="clip0_964_17566">
<rect width="151" height="62" fill="white"/>
</clipPath>
<clipPath id="clip1_964_17566">
<rect width="104" height="62" fill="white" transform="translate(23.5)"/>
</clipPath>
</defs>
</svg>
