<svg width="153" height="34" viewBox="0 0 153 34" fill="none" xmlns="http://www.w3.org/2000/svg">
<g clip-path="url(#clip0_964_17554)">
<g clip-path="url(#clip1_964_17554)">
<path d="M48.2553 31.9249L54.4193 32.0526C52.2949 31.3183 50.2349 30.4244 48.2553 29.3709V31.9249ZM57.5414 31.0789V31.9249L54.4193 32.0526C60.2935 34.0479 65.6688 34.3193 69.66 33.2019C66.4574 33.2338 62.2891 32.7869 57.5414 31.0789ZM123.349 12.6901C125.908 12.6901 128 10.631 128 8.077C128 5.52301 125.924 4.1662 123.349 4.1662C120.79 4.1662 118.698 5.53897 118.698 8.077C118.698 10.615 120.774 12.6901 123.349 12.6901ZM118.682 31.9249H128V14.2864H118.682V31.9249ZM106.82 31.9249H116.139V0.750239L106.82 5.10799V31.9249ZM101.831 12.8657C98.9024 9.96057 93.7202 10.1362 93.7202 10.1362C93.7202 10.1362 88.5219 9.96057 85.6089 12.8657C82.6799 15.7709 82.9052 18.277 82.9052 21.262C82.9052 24.247 82.6799 26.7371 85.6089 29.6423C88.538 32.5474 93.7202 32.3718 93.7202 32.3718C93.7202 32.3718 98.9185 32.5474 101.831 29.6423C104.76 26.7371 104.535 24.247 104.535 21.262C104.519 18.261 104.744 15.7549 101.831 12.8657ZM95.4261 24.3427C95.4261 24.9174 95.1364 26.338 93.7041 26.338C92.2718 26.338 91.9821 24.9174 91.9821 24.3427V17.8939C91.9821 16.5052 93.1569 16.154 93.7041 16.154C94.2513 16.154 95.4261 16.4892 95.4261 17.8939V24.3427ZM78.3346 12.8657C75.4055 9.96057 70.2233 10.1362 70.2233 10.1362C70.2233 10.1362 65.0411 9.96057 62.1121 12.8657C61.8063 13.169 61.5166 13.4883 61.2591 13.8235C55.1113 9.0986 49.5911 6.40094 44.8274 4.07043V0.766202L41.2063 2.45822C32.4513 -1.06948 26.8828 -0.446944 25.5471 2.47418C25.5471 2.47418 21.5397 7.70986 35.493 20.1606V31.9249H44.8113V27.3596C43.7652 26.6892 42.7191 25.9709 41.6891 25.1887C39.3072 23.4009 37.2794 21.7409 35.5091 20.1765V15.2282C37.6174 17.5747 40.4177 20.2404 44.1032 23.2573L44.8274 23.8319V19.0751C44.8274 17.9737 45.101 16.17 46.5655 16.17C48.03 16.17 48.2714 17.2714 48.2714 18.5643V26.338C51.1683 28.2855 54.2744 29.8657 57.5575 31.0629V16.0742C57.5575 13.0892 55.401 10.1042 51.0235 10.1042C48.4807 10.0883 46.1149 11.4132 44.8274 13.6V4.9324C51.5707 8.26855 58.33 12.3549 60.905 14.2385C59.2635 16.569 59.4083 18.7239 59.4083 21.2141C59.4083 24.1991 59.183 26.6892 62.1121 29.5944C65.0411 32.4995 70.2233 32.324 70.2233 32.324C70.2233 32.324 75.4216 32.4995 78.3346 29.5944C81.2636 26.6892 81.0222 24.1991 81.0222 21.2141C81.0222 18.261 81.2636 15.7549 78.3346 12.8657ZM35.493 5.10799V15.2122C27.6553 6.51268 29.2325 3.08076 29.828 2.58592C32.0007 0.766201 35.8632 1.30892 40.1924 2.92113L35.493 5.10799ZM71.9453 24.3427C71.9453 24.9174 71.6557 26.338 70.2233 26.338C68.791 26.338 68.5013 24.9174 68.5013 24.3427V17.8939C68.5013 16.5052 69.6761 16.154 70.2233 16.154C70.7705 16.154 71.9453 16.4892 71.9453 17.8939V24.3427Z" fill="#737373"/>
</g>
</g>
<defs>
<clipPath id="clip0_964_17554">
<rect width="153" height="34" fill="white"/>
</clipPath>
<clipPath id="clip1_964_17554">
<rect width="103" height="34" fill="white" transform="translate(25)"/>
</clipPath>
</defs>
</svg>
