<svg width="151" height="42" viewBox="0 0 151 42" fill="none" xmlns="http://www.w3.org/2000/svg">
<g clip-path="url(#clip0_964_17563)">
<g clip-path="url(#clip1_964_17563)">
<path d="M50.5552 3.29318L43.5866 4.75682L43.5544 27.4114C43.5544 31.5955 46.741 34.3 50.9736 34.3C53.3233 34.3 55.0454 33.8705 55.9949 33.3614V27.9841C55.0775 28.35 50.5713 29.6546 50.5713 25.4864V15.4318H55.9949V9.41818H50.5713L50.5552 3.29318ZM64.8947 11.5023L64.4602 9.41818H58.2802V33.7909H65.4097V17.3886C67.0996 15.1932 69.9482 15.6227 70.8655 15.9091V9.41818C69.8999 9.08409 66.5685 8.46364 64.8947 11.5023ZM79.7493 0L72.5714 1.51136V7.27045L79.7493 5.75909V0ZM31.2266 16.5932C31.2266 15.4955 32.16 15.0659 33.6568 15.05C35.8294 15.05 38.5975 15.7023 40.7702 16.8636V10.2136C38.4044 9.29091 36.0386 8.925 33.6729 8.925C27.8791 8.925 24.0166 11.9159 24.0166 16.9114C24.0166 24.7386 34.8799 23.4659 34.8799 26.8386C34.8799 28.1432 33.7372 28.5727 32.1439 28.5727C29.7782 28.5727 26.7204 27.6023 24.3224 26.3136V32.6773C26.9779 33.8068 29.6655 34.2841 32.1279 34.2841C38.0664 34.2841 42.1543 31.7705 42.1543 26.6796C42.1543 18.2636 31.2266 19.775 31.2266 16.5932ZM127.001 21.8909C127.001 14.6523 123.46 8.94091 116.668 8.94091C109.877 8.94091 105.741 14.6523 105.741 21.8432C105.741 30.3545 110.617 34.2841 117.57 34.2841C120.981 34.2841 123.54 33.5205 125.488 32.4545V27.1409C123.54 28.1114 121.303 28.7 118.471 28.7C115.687 28.7 113.24 27.7295 112.918 24.4205H126.904C126.936 24.0545 127.001 22.575 127.001 21.8909ZM112.854 19.2182C112.854 16.0364 114.834 14.7 116.62 14.7C118.374 14.7 120.241 16.0364 120.241 19.2182H112.854ZM94.6843 8.94091C91.884 8.94091 90.0815 10.2455 89.0836 11.1523L88.7135 9.40227H82.4208V41.9841L89.5665 40.4886L89.5825 32.5023C90.6125 33.25 92.1414 34.2841 94.636 34.2841C99.7538 34.2841 104.421 30.5932 104.421 21.6205C104.437 13.4114 99.7055 8.94091 94.6843 8.94091ZM92.9783 28.4296C91.3046 28.4296 90.3068 27.825 89.6147 27.0932L89.5665 16.5932C90.3068 15.7818 91.3368 15.1932 92.9783 15.1932C95.5855 15.1932 97.388 18.0886 97.388 21.7795C97.4041 25.5818 95.6338 28.4296 92.9783 28.4296ZM72.5875 33.7909H79.7654V9.41818H72.5875V33.7909Z" fill="#737373"/>
</g>
</g>
<defs>
<clipPath id="clip0_964_17563">
<rect width="151" height="42" fill="white"/>
</clipPath>
<clipPath id="clip1_964_17563">
<rect width="103" height="42" fill="white" transform="translate(24)"/>
</clipPath>
</defs>
</svg>
